<svg xmlns="http://www.w3.org/2000/svg" width="678" height="69" viewBox="0 0 678 69">
    <g fill="none" fill-rule="evenodd">
        <path fill="#AE4AFF" d="M317.281 9.117c-.373.374-.906.64-1.545.64-.588 0-1.12-.266-1.493-.64-.427-.372-.64-.96-.64-1.545 0-.587.213-1.12.64-1.547.373-.373.905-.586 1.493-.586v-.053c.586 0 1.172.266 1.545.64.374.426.64.959.64 1.546 0 .586-.266 1.173-.64 1.545m2.72-5.758c-1.067-1.12-2.613-1.759-4.265-1.759-1.653 0-3.146.64-4.212 1.759-1.12 1.067-1.76 2.56-1.76 4.213 0 1.652.64 3.146 1.76 4.265.639.64 1.439 1.12 2.292 1.439v7.73c.64-.105 1.28-.159 1.92-.159.692 0 1.332.054 1.919.16v-7.731c.906-.319 1.705-.8 2.345-1.439 1.066-1.12 1.76-2.613 1.76-4.265 0-1.653-.694-3.146-1.76-4.213m-28.363 60.62c-.747.747-1.706 1.12-2.667 1.12-1.013 0-1.972-.373-2.719-1.12-.746-.746-1.12-1.706-1.12-2.719 0-.959.374-1.92 1.12-2.666.747-.746 1.706-1.118 2.72-1.118.96 0 1.92.372 2.666 1.118.746.747 1.12 1.707 1.12 2.666 0 1.013-.374 1.973-1.12 2.72m14.501-19.887c-.48-.427-.906-.907-1.28-1.44l-11.995 12.05c-1.226-.747-2.559-1.067-3.893-1.067-1.972 0-3.945.746-5.438 2.24-1.493 1.492-2.239 3.465-2.239 5.384 0 1.973.746 3.945 2.24 5.439 1.492 1.492 3.465 2.239 5.437 2.239 1.92 0 3.893-.747 5.386-2.24 1.493-1.493 2.239-3.465 2.239-5.438 0-1.333-.32-2.666-1.013-3.892l11.996-11.997c-.533-.372-1.013-.799-1.44-1.278"/>
        <path fill="#FFF" d="M677.109 44.732c0 7.305-6.238 11.57-14.822 11.57-4.64 0-8.051-.8-11.57-2.133l-2.453-.906c-.32-.107-.426-.373-.32-.693l.96-2.506c.107-.373.32-.48.64-.373l2.454.906c2.984 1.066 5.97 1.867 10.289 1.867 5.758 0 10.61-2.773 10.61-7.732 0-3.625-3.093-5.704-6.612-7.09l-8.53-3.2c-6.772-2.505-9.17-5.81-9.17-10.983 0-6.77 5.225-10.77 13.33-10.77 3.198 0 6.13.535 9.275 1.547l3.092.96c.374.159.48.373.374.746l-.906 2.506c-.107.32-.32.426-.64.32l-2.986-.907c-2.665-.853-5.278-1.278-8.21-1.278-5.545 0-9.224 2.611-9.224 6.876 0 2.826 1.28 5.438 6.664 7.412l8.477 3.198c5.759 2.187 9.278 5.065 9.278 10.663zm-47.825-30.815v2.611c0 .32-.213.534-.585.534h-13.917V55.13c0 .372-.213.532-.586.532h-2.986c-.373 0-.586-.16-.586-.532V17.062h-13.915c-.374 0-.587-.213-.587-.534v-2.611c0-.375.213-.535.587-.535h31.99c.372 0 .585.16.585.535zm-54.435 0V55.13c0 .372-.16.532-.533.532h-3.84c-.265 0-.478-.106-.585-.427-.853-1.866-2.293-4.158-3.466-6.024l-17.487-25.698c-.8-1.28-1.6-2.72-2.026-3.626-.267-.532-.853-.372-.747.267.214 1.546.427 3.625.427 5.811V55.13c0 .372-.213.532-.533.532h-3.04c-.372 0-.532-.16-.532-.532V13.917c0-.375.16-.535.533-.535h3.892c.267 0 .48.108.586.427.96 1.76 2.292 4.16 3.466 5.972L568.45 45.48c.906 1.28 1.6 2.719 2.026 3.678.266.587.907.32.747-.213-.267-1.545-.427-3.73-.427-5.864V13.917c0-.375.214-.535.587-.535h2.932c.374 0 .533.16.533.535zm-54.274 38.6v2.613c0 .372-.16.532-.535.532h-27.136c-.374 0-.534-.16-.534-.532V13.917c0-.375.16-.535.534-.535h26.87c.427 0 .64.214.48.587l-.799 2.614c-.054.372-.267.479-.587.479h-22.446v15.035h19.14c.374 0 .534.213.534.586v2.56c0 .372-.16.586-.533.586h-19.141v16.154h23.618c.374 0 .535.16.535.533zM471.31 13.968l-12.635 30.39c-1.386 3.412-2.613 7.358-3.465 10.824-.054.32-.32.48-.641.48h-3.466c-.32 0-.586-.16-.639-.48-.853-3.466-2.026-7.412-3.359-10.824l-12.69-30.39c-.106-.373.107-.587.48-.587h3.146c.374 0 .587.108.693.427l11.516 27.725c1.066 2.825 1.867 5.811 2.24 7.677.053.586.693.586.746 0 .373-1.866 1.173-4.852 2.292-7.677l11.463-27.725c.107-.32.32-.427.693-.427h3.2c.373 0 .533.214.426.587zm-55.714 38.547v2.614c0 .372-.213.532-.587.532h-27.084c-.373 0-.534-.16-.534-.532V13.917c0-.375.16-.535.534-.535h26.87c.427 0 .588.214.48.587l-.799 2.614c-.053.372-.32.479-.587.479h-22.445v15.035h19.086c.374 0 .587.213.587.586v2.56c0 .372-.213.586-.587.586h-19.086v16.154h23.565c.374 0 .587.16.587.533zm-173.542-7.784c0 7.305-6.186 11.57-14.822 11.57-4.586 0-8.051-.8-11.516-2.133l-2.453-.906c-.32-.107-.48-.373-.32-.693l.906-2.506c.107-.373.374-.48.693-.373l2.452.906c2.933 1.066 5.972 1.867 10.238 1.867 5.81 0 10.663-2.773 10.663-7.732 0-3.625-3.146-5.704-6.665-7.09l-8.53-3.2c-6.771-2.505-9.171-5.81-9.171-10.983 0-6.77 5.225-10.77 13.382-10.77 3.146 0 6.132.535 9.278 1.547l3.038.96c.374.159.48.373.374.746l-.853 2.506c-.107.32-.374.426-.693.32l-2.933-.907c-2.72-.853-5.278-1.278-8.21-1.278-5.545 0-9.224 2.611-9.224 6.876 0 2.826 1.28 5.438 6.612 7.412l8.476 3.198c5.811 2.187 9.278 5.065 9.278 10.663zm-50.97-30.815V39.08c0 10.824-5.758 17.222-15.675 17.222-9.864 0-15.675-6.398-15.675-17.222V13.917c0-.375.213-.535.587-.535h2.932c.373 0 .586.16.586.535V39.08c0 8.478 4.212 13.384 11.57 13.384 7.41 0 11.622-4.906 11.622-13.384V13.917c0-.375.213-.535.587-.535h2.933c.373 0 .532.16.532.535zM137.767 54.97c.266.372.106.692-.32.692h-3.413c-.32 0-.48-.106-.692-.374l-11.41-17.86c-.32-.533-.694-.533-1.066 0l-11.463 17.86c-.213.268-.373.374-.693.374h-3.359c-.427 0-.64-.32-.373-.692l11.462-17.755c.8-1.493 1.493-2.132 2.293-2.56.266-.212.32-.586 0-.746-.854-.48-1.493-1.226-2.239-2.559l-11.143-17.327c-.267-.373-.054-.64.373-.64h3.306c.32 0 .48.107.64.373l11.196 17.274c.32.533.747.533 1.066 0l11.09-17.274c.213-.266.372-.374.693-.374h3.359c.426 0 .639.268.373.641l-11.09 17.327c-.907 1.387-1.493 2.08-2.292 2.56-.267.16-.267.533 0 .746.853.48 1.493 1.173 2.292 2.56l11.41 17.754zm-53.156-2.454v2.614c0 .372-.16.532-.533.532H56.994c-.372 0-.585-.16-.585-.532V13.917c0-.375.213-.535.585-.535h26.818c.48 0 .64.214.533.587l-.8 2.614c-.052.372-.32.479-.639.479H60.46v15.035h19.141c.372 0 .533.213.533.586v2.56c0 .372-.16.586-.533.586h-19.14v16.154h23.618c.373 0 .533.16.533.533zm-52.25-38.6V55.13c0 .372-.159.532-.533.532h-3.785c-.32 0-.533-.106-.64-.427-.853-1.866-2.292-4.158-3.465-6.024L6.45 23.513c-.799-1.28-1.6-2.72-2.025-3.626-.267-.532-.854-.372-.747.267.267 1.546.426 3.625.426 5.811V55.13c0 .372-.159.532-.533.532H.533c-.373 0-.533-.16-.533-.532V13.917c0-.375.16-.535.533-.535h3.893c.32 0 .48.108.586.427.96 1.76 2.292 4.16 3.466 5.972L25.965 45.48c.906 1.28 1.6 2.719 2.08 3.678.212.587.852.32.693-.213-.267-1.545-.427-3.73-.427-5.864V13.917c0-.375.213-.535.586-.535h2.932c.374 0 .534.16.534.535zM315.736 44.36c-2.719 0-5.171-1.12-6.983-2.879-1.76-1.812-2.88-4.265-2.88-6.985 0-2.771 1.12-5.224 2.88-6.983 1.812-1.814 4.264-2.933 6.983-2.933 2.773 0 5.225 1.12 6.985 2.933 1.812 1.76 2.932 4.265 2.932 6.983 0 2.72-1.12 5.173-2.88 6.985-1.812 1.76-4.264 2.88-7.037 2.88zm2.186 17.008c0 .64-.266 1.173-.64 1.547-.372.372-.906.639-1.546.639-.586 0-1.12-.267-1.493-.64-.426-.373-.64-.907-.64-1.546 0-.587.214-1.12.64-1.493.374-.426.907-.64 1.493-.64.64 0 1.174.214 1.546.64.374.373.64.906.64 1.493zm23.192-28.417c.427-.374.96-.64 1.547-.64.586 0 1.12.266 1.545.64.375.426.641.96.641 1.545h-.053c0 .588-.213 1.12-.588 1.494-.426.426-.959.64-1.545.64-.587 0-1.12-.214-1.547-.587v-.053c-.373-.374-.639-.906-.639-1.494 0-.639.266-1.172.64-1.545zm-1.279 25.644c.747-.746 1.76-1.118 2.72-1.118.959 0 1.972.372 2.718 1.118.747.747 1.12 1.707 1.12 2.667 0 1.012-.373 1.972-1.12 2.719-.746.746-1.76 1.12-2.719 1.12-.96 0-1.972-.374-2.719-1.12-.746-.747-1.12-1.707-1.12-2.72 0-.959.374-1.92 1.12-2.666zM290.357 35.99v.053c-.373.373-.906.586-1.493.586-.64 0-1.173-.213-1.546-.639-.373-.374-.64-.906-.64-1.494 0-.586.267-1.172.64-1.545.373-.374.96-.64 1.546-.64.587 0 1.12.266 1.493.64.426.373.64.906.64 1.545 0 .588-.214 1.12-.64 1.494zm1.28-25.592c-.747.746-1.707 1.12-2.666 1.12-1.013 0-1.973-.374-2.719-1.12-.746-.746-1.12-1.76-1.12-2.719 0-.96.374-1.973 1.12-2.719.746-.746 1.706-1.12 2.719-1.12.96 0 1.919.374 2.666 1.12.746.746 1.12 1.759 1.12 2.72 0 1.012-.374 1.972-1.12 2.718zm48.197-5.438c.747-.746 1.76-1.12 2.72-1.12.959 0 1.972.374 2.718 1.12.747.746 1.12 1.759 1.12 2.72 0 .959-.373 1.972-1.12 2.718-.746.746-1.76 1.12-2.719 1.12-.96 0-1.972-.374-2.719-1.12-.746-.746-1.12-1.706-1.12-2.719 0-.96.374-1.973 1.12-2.719zm-1.173 9.33c1.173.693 2.56 1.066 3.892 1.066 1.973 0 3.945-.746 5.438-2.239 1.492-1.493 2.24-3.465 2.24-5.438 0-1.973-.748-3.945-2.24-5.439C346.498.747 344.526 0 342.553 0c-1.972 0-3.892.747-5.439 2.24-1.492 1.493-2.238 3.465-2.238 5.438 0 1.333.373 2.72 1.066 3.892l-11.959 11.958c-2.286-1.743-5.155-2.787-8.248-2.787-3.084 0-5.91 1.038-8.21 2.773L295.581 11.57c.694-1.173 1.015-2.559 1.015-3.892 0-1.973-.748-3.945-2.24-5.439C292.863.747 290.89 0 288.971 0c-1.973 0-3.945.747-5.438 2.24-1.493 1.493-2.24 3.465-2.24 5.438 0 1.973.747 3.945 2.24 5.438 1.493 1.493 3.465 2.239 5.438 2.239 1.333 0 2.666-.373 3.892-1.065l11.949 11.948c-1.363 1.823-2.294 3.98-2.628 6.338h-7.668c-.267-.905-.8-1.705-1.44-2.345-1.066-1.067-2.558-1.76-4.212-1.76-1.705 0-3.2.693-4.265 1.76-1.066 1.12-1.759 2.612-1.759 4.264 0 1.653.693 3.146 1.759 4.213 1.066 1.119 2.612 1.76 4.265 1.76 1.654 0 3.146-.641 4.212-1.76.64-.64 1.173-1.44 1.44-2.293h7.668c.426 3.012 1.819 5.711 3.849 7.784 2.072 2.03 4.77 3.422 7.783 3.848v7.668c-.853.267-1.653.8-2.293 1.44-1.12 1.066-1.76 2.612-1.76 4.212 0 1.706.64 3.199 1.76 4.265 1.067 1.067 2.56 1.76 4.212 1.76 1.653 0 3.199-.693 4.266-1.76 1.066-1.066 1.759-2.559 1.759-4.265 0-1.6-.693-3.146-1.76-4.212-.639-.64-1.44-1.173-2.345-1.44v-7.667c2.363-.332 4.537-1.26 6.346-2.62l11.94 11.94c-.692 1.226-1.065 2.559-1.065 3.893 0 1.972.746 3.944 2.238 5.438 1.547 1.493 3.467 2.239 5.44 2.239 1.972 0 3.944-.746 5.437-2.24 1.492-1.493 2.24-3.465 2.24-5.437 0-1.92-.748-3.893-2.24-5.386-1.493-1.493-3.465-2.239-5.438-2.239-1.332 0-2.719.32-3.892 1.067l-11.944-11.997c1.368-1.813 2.291-3.953 2.623-6.29h7.615c.32.852.8 1.652 1.44 2.292h.053c1.066 1.119 2.559 1.76 4.212 1.76 1.652 0 3.146-.641 4.265-1.76 1.066-1.067 1.76-2.56 1.76-4.213h-.054c0-1.652-.64-3.198-1.706-4.264-1.12-1.067-2.613-1.76-4.265-1.76-1.653 0-3.146.693-4.212 1.76h-.054c-.64.64-1.12 1.44-1.439 2.345h-7.615c-.332-2.356-1.26-4.524-2.637-6.328l11.958-11.958z"/>
    </g>
</svg>
