<svg width="1000" height="600" viewBox="0 0 1000 600" fill="none" xmlns="http://www.w3.org/2000/svg">
<path d="M682.044 207.646C683.202 185.139 665.443 171.568 648.344 159.266C637.258 92.4626 533.346 93.4555 505.713 95.9931C451.331 60.026 390.384 58.4814 384.317 61.3499C382.938 66.2595 383.876 127.933 401.25 163.79C401.25 163.79 374.334 179.291 364.075 214.707C386.248 182.27 428.662 171.734 428.662 171.734C414.101 139.959 406.876 86.56 408.751 86.7806C463.409 92.5177 501.356 118.279 501.356 118.279C610.453 113.866 623.8 152.481 626.282 172.009C659.431 194.792 662.354 205.88 659.927 214.596C659.872 214.707 659.872 214.872 659.817 214.982C659.651 215.479 659.486 215.975 659.32 216.472H659.376C651.047 243.171 634.611 267.499 634.887 268.492C638.03 279.635 641.064 321.449 596.554 323.877C589.439 258.893 500.915 313.726 490.049 357.582C514.428 324.483 583.868 289.84 578.022 346.328C663.457 346.77 663.512 291.661 658.383 272.96C677.852 240.689 682.43 212.776 682.044 207.646Z" fill="black"/>
<path d="M431.199 194.847C409.082 200.86 389.06 212.941 367.44 241.24H386.689C376.926 258.507 372.624 272.684 374.334 298.391C384.979 266.34 410.13 238.372 432.523 220.94H405.276L431.199 194.847Z" fill="black"/>
<path d="M129.175 476.394C129.175 493.437 115.822 504.76 98.2751 504.76H71.9544V534.4H58.0974V448.028H98.6753C115.956 448.028 129.175 459.351 129.175 476.394ZM114.933 476.646C114.933 467.235 107.049 460.996 97.6379 460.996H71.9544V492.029H97.6379C107.049 492.029 114.933 485.923 114.933 476.646Z" fill="black"/>
<path d="M144.32 507.798V468.628H158.059V508.183C158.059 508.183 157.303 524.337 174.213 524.337C191.123 524.337 190.367 508.183 190.367 508.183V468.628H204.105V507.798C204.105 535.779 182.483 536.416 174.213 536.416C165.943 536.416 144.32 535.779 144.32 507.798Z" fill="black"/>
<path d="M323.764 493.941V534.386H310.026V495.334C310.026 484.782 306.217 478.795 297.177 478.795C288.907 478.795 280.637 485.034 280.637 497.365V534.371H266.899V495.334C266.899 484.782 263.09 478.795 254.05 478.795C246.417 478.795 238.666 484.13 237.644 494.816V534.371H223.906V468.628H237.644V476.513C238.4 474.734 242.861 466.598 256.08 466.598C265.358 466.598 272.62 470.288 276.814 477.402C279.867 471.681 286.729 466.598 299.192 466.598C313.983 466.598 323.764 475.875 323.764 493.941Z" fill="black"/>
<path d="M337.77 501.573C337.77 482.366 352.012 466.731 372.108 466.731C381.653 466.731 389.656 470.421 394.235 475.001V468.643H407.84V534.4H393.983L394.102 527.657C389.774 532.103 382.779 536.312 372.093 536.312C352.012 536.297 337.77 520.78 337.77 501.573ZM395.006 501.44C395.006 487.198 385.343 478.928 373.131 478.928C360.8 478.928 351.508 488.976 351.508 501.44C351.508 513.904 360.786 524.071 373.131 524.071C385.328 524.085 395.006 515.816 395.006 501.44Z" fill="black"/>
<path d="M530.834 508.183C530.834 525.982 518.622 534.385 500.304 534.385H462.661V448.028H498.022C516.71 448.028 526.121 454.89 526.121 470.288C526.121 480.084 520.148 486.057 511.745 487.45C523.453 488.472 530.834 496.861 530.834 508.183ZM476.532 460.996V482.485H495.488C506.677 482.485 512.531 480.069 512.531 471.296C512.027 461.633 505.536 460.996 496.258 460.996H476.532ZM516.206 507.931C516.206 499.158 510.604 494.83 499.296 494.83H476.532V521.418H499.296C510.604 521.403 516.206 516.957 516.206 507.931Z" fill="black"/>
<path d="M546.098 468.51H559.836V481.225C562.889 473.208 572.804 466.598 586.794 466.598V477.921C570.136 477.921 560.088 487.465 559.836 501.455V534.401H546.098V468.51Z" fill="black"/>
<path d="M593.151 501.573C593.151 482.366 609.172 466.731 629.15 466.731C649.113 466.731 665.148 482.381 665.148 501.573C665.148 520.78 649.127 536.297 629.15 536.297C609.172 536.297 593.151 520.78 593.151 501.573ZM651.914 501.573C651.914 489.11 642.117 479.061 629.15 479.061C616.182 479.061 606.386 489.11 606.386 501.573C606.386 513.904 616.182 523.952 629.15 523.952C642.117 523.952 651.914 513.904 651.914 501.573Z" fill="black"/>
<path d="M671.509 468.628H685.884L698.985 506.523L715.006 465.946L732.42 506.657L744.498 468.628H758.874L733.442 539.602L714.873 495.719L696.94 539.602L671.509 468.628Z" fill="black"/>
<path d="M763.971 530.058V516.571C763.971 516.571 772.626 524.07 783.297 524.07C792.07 524.07 796.516 521.403 796.516 517.075C796.516 512.244 792.07 509.324 784.304 504.997C775.664 500.165 767.765 495.971 767.765 485.034C767.765 473.844 777.561 466.716 789.506 466.716C797.524 466.716 803.363 469.132 806.55 471.043V484.53C803.63 481.729 797.776 478.928 791.166 478.928C783.786 478.928 780.733 481.344 780.733 484.782C780.733 488.976 784.29 490.384 795.612 496.994C804.386 502.077 809.351 506.405 809.351 516.319C809.351 526.367 801.852 536.282 783.4 536.282C772.241 536.297 763.971 530.058 763.971 530.058Z" fill="black"/>
<path d="M820.302 501.44C820.302 481.729 835.434 466.716 855.782 466.716C874.856 466.716 885.927 482.485 885.927 498.387V504.745H833.404C834.93 514.926 842.059 524.07 856.938 524.07C873.092 524.07 882.889 517.209 883.007 517.209V529.539C883.007 529.539 875.879 536.282 856.686 536.282C833.537 536.297 820.302 520.395 820.302 501.44ZM872.203 494.059C871.699 488.976 868.394 477.905 854.019 477.905C839.643 477.905 834.812 488.976 834.056 494.059H872.203Z" fill="black"/>
<path d="M901.206 468.51H914.944V481.225C917.997 473.208 927.912 466.598 941.902 466.598V477.921C925.244 477.921 915.196 487.465 914.944 501.455V534.401H901.206V468.51Z" fill="black"/>
</svg>
